<svg xmlns="http://www.w3.org/2000/svg" viewBox="0 0 1080 1080"><defs><style>.cls-1{fill:#f2e0cb;}.cls-2{fill:#567a54;}</style></defs><g id="Layer_1" data-name="Layer 1"><path class="cls-1" d="M805,540A265.05,265.05,0,0,1,572.83,803h0a268.38,268.38,0,0,1-30.06,2h-5.5a268.38,268.38,0,0,1-30.06-2A265,265,0,0,1,275,540c0-146.36,118.65-265,265-265S805,393.64,805,540Z"/><path class="cls-2" d="M457.83,440l47.14.17a9.07,9.07,0,0,1,3.25,2.58c2,2.49,1.92,5.35,1.89,7.54-.05,3.27-1.28,3.9-2.4,8.91a48.7,48.7,0,0,0-.86,5.49c-1.25,10.5-1.87,15.76.17,21.08a26.83,26.83,0,0,0,5.66,8.74,32,32,0,0,0,5.48,4.46c5.66,3.92,8.5,5.89,12.35,8.4,9.72,6.35,15.08,15.7,16.8,18.68,4.62,8.07,6.11,15.3,7.19,20.57A83.18,83.18,0,0,1,556.22,563q-.39,33.81-.77,67.62a71.72,71.72,0,0,1-15.86,41.66c-18.22,22.23-43.76,25.15-48.85,25.62l-68.95.86a17.1,17.1,0,0,1-8.19-4.63,17.78,17.78,0,0,1-4.8-12.57q-.42-63.09-.86-126.19A62.91,62.91,0,0,1,414.29,531,56,56,0,0,1,429.6,511.2c3.47-2.75,5.46-3.56,15.43-11,4.22-3.13,6.94-5.28,9.14-9a24.47,24.47,0,0,0,3.2-10.52,50.29,50.29,0,0,0-1-16.22c-.8-3.35-1.46-6.72-2.29-10.06-.89-3.61-1.32-5-1-7C453.56,443.91,456,441.4,457.83,440Z"/><path class="cls-2" d="M468.61,424.36l24.91.17a18.86,18.86,0,0,0,2.74-2.92,17.88,17.88,0,0,0,1.89-3.09l-.17-29a5,5,0,0,1,1.72-2.75,4.66,4.66,0,0,1,1.72-.85l15.8.17a64.3,64.3,0,0,1,20.6,5.67c4.7,2.18,17.29,8.25,26.11,22.32,10.9,17.39,8.68,35.26,7.9,40.88-2,14-8.17,23.87-12,29.88a87.52,87.52,0,0,1-14.09,16.83c.12,2.06.23,4.12.35,6.18a90,90,0,0,1,9.73,9.62c2.28,2.62,8.94,10.6,15.34,24.73a143.49,143.49,0,0,1,11.91,45.34c1,11.43,2.6,29.57-4.81,51.06-10.82,31.38-33.47,48.5-40.76,53.58A111.31,111.31,0,0,1,483,711.62c-.07,1.14-.15,2.29-.23,3.43a6.11,6.11,0,0,0,1.06,1.06,7.2,7.2,0,0,0,1.86,1,26.18,26.18,0,0,0,9.68,1c5.19-.55,7,.76,13.51,1.38A221.59,221.59,0,0,0,560.15,718a175.75,175.75,0,0,0,57-20.27c9.5-5.38,19-10.83,28.85-21.29a97.77,97.77,0,0,0,20.61-32.63,89.9,89.9,0,0,0,3.78-47.75c-4.48-22.79-16.66-37.15-22-43.27-12.56-14.45-26.2-21.59-34.34-25.76a129.13,129.13,0,0,0-27.48-10.31l-.23-2.29c2.15-2.57,5.25-6.37,8.82-11.1,8.4-11.15,12.6-16.72,16.14-24.05a82.59,82.59,0,0,0,7.9-35.38,75.08,75.08,0,0,0-23.7-57.36C580.72,372.51,564.13,367.24,551,364c-17.85-4.38-24.39-4.7-45.91-4.24,0,0-7.17,0-21.53,1-5.23.38-9.57,1-13.39,4.12a17.76,17.76,0,0,0-5.15,7.22q-.18,23.7-.35,47.4h0a11.43,11.43,0,0,0,1.49,2.52A11.26,11.26,0,0,0,468.61,424.36Z"/></g></svg>