<svg xmlns="http://www.w3.org/2000/svg" viewBox="0 0 1080 1080"><defs><style>.cls-1{font-size:197.54px;font-family:PlayfairDisplay-Bold, Playfair Display;font-weight:700;letter-spacing:-0.02em;}.cls-1,.cls-3,.cls-8{fill:#567a54;}.cls-2{letter-spacing:-0.01em;}.cls-3{font-size:107.77px;font-family:Satoshi-Medium, Satoshi;font-weight:500;letter-spacing:-0.03em;}.cls-4{letter-spacing:-0.06em;}.cls-5{letter-spacing:-0.03em;}.cls-6{letter-spacing:-0.01em;}.cls-7{fill:#f2e0cb;}</style></defs><g id="Layer_1" data-name="Layer 1"><text class="cls-1" transform="translate(506.09 566.99)">B<tspan class="cls-2" x="129.19" y="0">RB</tspan></text><text class="cls-3" transform="translate(509.05 656.59)">BE<tspan class="cls-4" x="125.23" y="0">A</tspan><tspan class="cls-5" x="190.1" y="0">U</tspan><tspan class="cls-6" x="263.49" y="0">T</tspan><tspan x="322.55" y="0">Y</tspan></text><path class="cls-7" d="M491.63,540A154.75,154.75,0,0,1,356.08,693.54h0a158.61,158.61,0,0,1-17.54,1.17h-3.22a158.8,158.8,0,0,1-17.55-1.17A154.72,154.72,0,1,1,491.63,540Z"/><path class="cls-8" d="M288.94,481.59l27.52.1a5.31,5.31,0,0,1,1.91,1.5,6.58,6.58,0,0,1,1.1,4.4c0,1.91-.75,2.29-1.4,5.21a28.23,28.23,0,0,0-.51,3.2c-.72,6.14-1.09,9.2.1,12.31a15.56,15.56,0,0,0,3.31,5.1,18.37,18.37,0,0,0,3.2,2.61c3.3,2.29,5,3.43,7.21,4.9a31.85,31.85,0,0,1,9.8,10.91,37.79,37.79,0,0,1,4.21,12,49.08,49.08,0,0,1,1,9.61l-.45,39.48a41.89,41.89,0,0,1-9.26,24.31c-10.64,13-25.55,14.69-28.52,15l-40.26.5a10.05,10.05,0,0,1-4.78-2.71,10.38,10.38,0,0,1-2.8-7.33q-.26-36.84-.5-73.68a36.71,36.71,0,0,1,3.7-14.26,33,33,0,0,1,8.94-11.54c2-1.61,3.19-2.08,9-6.41,2.46-1.83,4-3.08,5.34-5.27a14.32,14.32,0,0,0,1.87-6.14,29.67,29.67,0,0,0-.6-9.47c-.47-1.95-.86-3.92-1.34-5.87-.52-2.11-.77-2.93-.6-4.07A7.19,7.19,0,0,1,288.94,481.59Z"/><path class="cls-8" d="M295.24,472.48l14.54.1a10.74,10.74,0,0,0,1.6-1.7,10.55,10.55,0,0,0,1.11-1.81l-.1-16.94a2.84,2.84,0,0,1,1-1.6,2.77,2.77,0,0,1,1-.51l9.23.1a37.62,37.62,0,0,1,12,3.31,34.92,34.92,0,0,1,15.24,13c6.37,10.15,5.07,20.58,4.61,23.86a42.22,42.22,0,0,1-7,17.45,51.3,51.3,0,0,1-8.22,9.82c.07,1.21.13,2.41.2,3.61a53.06,53.06,0,0,1,5.68,5.62,58.61,58.61,0,0,1,9,14.44,83.81,83.81,0,0,1,6.95,26.47c.59,6.67,1.52,17.26-2.81,29.81a64.2,64.2,0,0,1-55.61,42.65c-.05.66-.09,1.33-.13,2a3.42,3.42,0,0,0,.61.62,4.1,4.1,0,0,0,1.09.57,15.28,15.28,0,0,0,5.65.62c3-.33,4.12.44,7.89.8a129.76,129.76,0,0,0,29.94-.87A102.69,102.69,0,0,0,382,632.11c5.55-3.15,11.07-6.33,16.85-12.44a57.18,57.18,0,0,0,12-19,52.39,52.39,0,0,0,2.2-27.87,53.44,53.44,0,0,0-12.83-25.27,63.46,63.46,0,0,0-20.05-15,75,75,0,0,0-16.05-6l-.13-1.34c1.26-1.5,3.06-3.72,5.15-6.48,4.9-6.51,7.36-9.76,9.42-14a48.17,48.17,0,0,0,4.61-20.66,43.8,43.8,0,0,0-13.83-33.48c-8.65-8.21-18.33-11.29-26-13.17-10.42-2.56-14.23-2.75-26.8-2.48,0,0-4.18,0-12.57.61-3,.22-5.59.57-7.82,2.4a10.49,10.49,0,0,0-3,4.21l-.2,27.68h0a7.41,7.41,0,0,0,.87,1.47A6.43,6.43,0,0,0,295.24,472.48Z"/></g></svg>